<svg xmlns="http://www.w3.org/2000/svg" width="1280" height="720" viewBox="0 0 1280 720" fill="none"><rect x="0" y="0" width="1280" height="720" fill="#0f172a" /><line x1="328" y1="360" x2="952" y2="360" stroke="rgba(148, 163, 184, 0.2)" stroke-width="1" stroke-dasharray="4 6" /><line x1="640" y1="48" x2="640" y2="672" stroke="rgba(148, 163, 184, 0.2)" stroke-width="1" stroke-dasharray="4 6" /><g><polygon points="271.84,266.4 508.96,266.4 535.434,277.366 546.4,303.84 546.4,416.16 535.434,442.634 508.96,453.6 271.84,453.6 245.366,442.634 234.4,416.16 234.4,303.84 245.366,277.366" fill="#f8fafc" stroke="#1e293b" stroke-width="7.8" /><text x="390.4" y="360" fill="#1e293b" font-size="84.24" text-anchor="middle" dominant-baseline="middle">Source</text><polygon points="771.04,266.4 1008.16,266.4 1034.634,277.366 1045.6,303.84 1045.6,416.16 1034.634,442.634 1008.16,453.6 771.04,453.6 744.566,442.634 733.6,416.16 733.6,303.84 744.566,277.366" fill="#f8fafc" stroke="#1e293b" stroke-width="7.8" /><text x="889.6" y="360" fill="#1e293b" font-size="84.24" text-anchor="middle" dominant-baseline="middle">Target</text><line x1="577.6" y1="360" x2="702.4" y2="360" stroke="#f97316" stroke-width="12.48" stroke-linecap="round" stroke-linejoin="round" /></g></svg>